<svg xmlns="http://www.w3.org/2000/svg" viewBox="0 0 22.6 22.2">
  <title>icon-help</title>
  <path d="M11.3,0A11.2,11.2,0,0,0,0,11.1a11.3,11.3,0,0,0,22.6,0A11.2,11.2,0,0,0,11.3,0ZM9.2,16.4A1.4,1.4,0,0,1,10.6,15a1.4,1.4,0,1,1,0,2.8A1.4,1.4,0,0,1,9.2,16.4Zm6-6.9a4.1,4.1,0,0,1-.7,1.1,4.2,4.2,0,0,1-1.6,1.2l-.9.4-.2.2h-.1v.8a.5.5,0,0,1-.5.5H9.9a.5.5,0,0,1-.5-.5v-.5c0-.3.1-.6.1-.9a2.5,2.5,0,0,1,.4-.7,2.8,2.8,0,0,1,1-.9l1-.5.7-.5.3-.4a1.9,1.9,0,0,0,.2-.8.6.6,0,0,0-.1-.4,1,1,0,0,0-.4-.5A2.6,2.6,0,0,0,11,6.6,3,3,0,0,0,9.5,7a1.1,1.1,0,0,0-.5.4.5.5,0,0,1-.7,0l-.9-.7a.8.8,0,0,1-.2-.4c0-.2,0-.3.2-.4a2.4,2.4,0,0,1,.9-.8A5.7,5.7,0,0,1,11,4.4a4.5,4.5,0,0,1,2.4.6A4.1,4.1,0,0,1,15,6.6a2.6,2.6,0,0,1,.4,1.5A6.8,6.8,0,0,1,15.2,9.5Z" fill="#fff"/>
</svg>
