<svg id="レイヤー_1" data-name="レイヤー 1" xmlns="http://www.w3.org/2000/svg" width="57.4" height="59.03" viewBox="0 0 57.4 59.03"><defs><style>.cls-1{fill:#fff;}</style></defs><title>icon-9</title><path class="cls-1" d="M285.37,402.82a3.34,3.34,0,0,0,3.34-3.34v-5.26a3.34,3.34,0,1,0-6.68,0v5.26A3.34,3.34,0,0,0,285.37,402.82Z" transform="translate(-268.98 -390.88)"/><path class="cls-1" d="M310,402.82a3.34,3.34,0,0,0,3.34-3.34v-5.26a3.34,3.34,0,0,0-6.68,0v5.26A3.34,3.34,0,0,0,310,402.82Z" transform="translate(-268.98 -390.88)"/><path class="cls-1" d="M318.34,395.64h-2.07v3.84a6.28,6.28,0,0,1-12.55,0v-3.84H291.64v3.84a6.28,6.28,0,0,1-12.55,0v-3.84H277a8,8,0,0,0-8,8v38.18a8,8,0,0,0,8,8h41.31a8,8,0,0,0,8-8V403.69A8,8,0,0,0,318.34,395.64Zm4.13,46.23a4.13,4.13,0,0,1-4.13,4.13H277a4.13,4.13,0,0,1-4.13-4.13v-33.1h49.58v33.1Z" transform="translate(-268.98 -390.88)"/><rect class="cls-1" x="20.36" y="43.53" width="6.54" height="6.54"/><rect class="cls-1" x="20.36" y="33.39" width="6.54" height="6.54"/><rect class="cls-1" x="10.23" y="43.53" width="6.54" height="6.54"/><rect class="cls-1" x="10.23" y="33.39" width="6.54" height="6.54"/><rect class="cls-1" x="40.64" y="23.26" width="6.54" height="6.54"/><rect class="cls-1" x="30.5" y="23.26" width="6.54" height="6.54"/><rect class="cls-1" x="30.5" y="33.39" width="6.54" height="6.54"/><rect class="cls-1" x="40.64" y="43.53" width="6.54" height="6.54"/><rect class="cls-1" x="40.64" y="33.39" width="6.54" height="6.54"/><rect class="cls-1" x="30.5" y="43.53" width="6.54" height="6.54"/><rect class="cls-1" x="20.36" y="23.26" width="6.54" height="6.54"/><rect class="cls-1" x="10.23" y="23.26" width="6.54" height="6.54"/></svg>