<svg id="レイヤー_1" data-name="レイヤー 1" xmlns="http://www.w3.org/2000/svg" width="35.58" height="33.95" viewBox="0 0 35.58 33.95"><defs><style>.cls-1{fill:#231815;}</style></defs><title>icon-8</title><path class="cls-1" d="M314.87,415.28l-1.38-1.38a2.14,2.14,0,0,0-3,0l-1.29,1.29,4.42,4.42,1.29-1.29A2.15,2.15,0,0,0,314.87,415.28Z" transform="translate(-279.92 -403.98)"/><polygon class="cls-1" points="17.14 23.32 17.14 27.74 21.55 27.74 32.46 16.83 28.04 12.41 17.14 23.32"/><path class="cls-1" d="M295,433.8v-7.36l11-11V404h-26.1v34H306v-7.82l-3.69,3.69H295Zm-9.63-21.5h12.47v2.08H285.34V412.3Zm0,7.62h12.47V422H285.34v-2.08Zm7.62,9.7h-7.62v-2.08H293v2.08Z" transform="translate(-279.92 -403.98)"/></svg>