<svg id="レイヤー_1" data-name="レイヤー 1" xmlns="http://www.w3.org/2000/svg" width="51.4" height="52.25" viewBox="0 0 51.4 52.25"><defs><style>.cls-1{fill:#fff;}</style></defs><title>icon_memo_2</title><path class="cls-1" d="M288.69,403.82a2.56,2.56,0,0,0,2.56-2.57v-4a2.56,2.56,0,0,0-5.13,0v4A2.56,2.56,0,0,0,288.69,403.82Z" transform="translate(-272.28 -394.65)"/><path class="cls-1" d="M307.6,403.82a2.56,2.56,0,0,0,2.56-2.57v-4a2.56,2.56,0,0,0-5.13,0v4A2.56,2.56,0,0,0,307.6,403.82Z" transform="translate(-272.28 -394.65)"/><path class="cls-1" d="M316.48,398.31h-4.07v2.94a4.82,4.82,0,1,1-9.64,0v-2.94H293.5v2.94a4.82,4.82,0,1,1-9.64,0v-2.94h-4.38a7.2,7.2,0,0,0-7.2,7.2V439.7a7.2,7.2,0,0,0,7.2,7.2h37a7.2,7.2,0,0,0,7.2-7.2V405.51A7.2,7.2,0,0,0,316.48,398.31Zm3.7,41.4a3.7,3.7,0,0,1-3.7,3.7h-37a3.7,3.7,0,0,1-3.7-3.7V410.06h44.39V439.7Z" transform="translate(-272.28 -394.65)"/><rect class="cls-1" x="17.43" y="39.04" width="6.49" height="6.49"/><rect class="cls-1" x="17.43" y="28.98" width="6.49" height="6.49"/><rect class="cls-1" x="7.37" y="39.04" width="6.49" height="6.49"/><rect class="cls-1" x="7.37" y="28.98" width="6.49" height="6.49"/><rect class="cls-1" x="37.54" y="18.92" width="6.49" height="6.49"/><rect class="cls-1" x="27.48" y="18.92" width="6.49" height="6.49"/><polygon class="cls-1" points="35.3 29.93 33.37 28.42 29.85 32.95 27.77 31.28 26.24 33.18 30.26 36.4 35.3 29.93"/><rect class="cls-1" x="37.54" y="28.98" width="6.49" height="6.49"/><rect class="cls-1" x="27.48" y="39.04" width="6.49" height="6.49"/><rect class="cls-1" x="17.43" y="18.92" width="6.49" height="6.49"/></svg>