<svg id="レイヤー_1" data-name="レイヤー 1" xmlns="http://www.w3.org/2000/svg" width="17.42" height="19.69" viewBox="0 0 17.42 19.69"><defs><style>.cls-1{fill:#4c4b4b;}</style></defs><title>icon-1</title><path class="cls-1" d="M306.4,428.19a2.75,2.75,0,0,0-1.55-2l-3.5-1.43a1.65,1.65,0,0,1-1-1.5v-0.52a2.2,2.2,0,0,1,.12-0.72s2.2-2.94,2.2-5.65c0-3.39-2.17-5.56-4.84-5.56S293,413,293,416.38c0,2.71,2.2,5.65,2.2,5.65a2.21,2.21,0,0,1,.12.72v0.52a1.65,1.65,0,0,1-1,1.5l-3.5,1.43a2.74,2.74,0,0,0-1.55,2l-0.18,2.32h17.42Z" transform="translate(-289.16 -410.82)"/></svg>