<svg id="レイヤー_1" data-name="レイヤー 1" xmlns="http://www.w3.org/2000/svg" width="50.09" height="47.05" viewBox="0 0 50.09 47.05"><defs><style>.cls-1{fill:#fff;}</style></defs><title>icon_mail</title><polygon class="cls-1" points="50.09 32.05 50.09 19.76 43.62 25.34 50.09 32.05"/><polygon class="cls-1" points="0 19.76 0 32.06 6.48 25.34 0 19.76"/><path class="cls-1" d="M301.6,434.54a6.81,6.81,0,0,1-8.62,0L281.92,425l-9.69,10v6.18a2.71,2.71,0,0,0,2.71,2.71h44.67a2.71,2.71,0,0,0,2.71-2.71v-6.18l-9.69-10Z" transform="translate(-272.24 -396.92)"/><path class="cls-1" d="M318.82,410.84l2.41,1-2.11,1.54-18,13.05-5.74,4.16,3.62-6.09,6.28-10.56-2.45-1-1.52-.64,0.81-1.44,2.55-4.55H274.95a2.72,2.72,0,0,0-2.71,2.72v2.7l23.62,20.35a2.31,2.31,0,0,0,2.85,0l23.62-20.35V409a2.71,2.71,0,0,0-2.71-2.71h-0.94l-2.88,3.28Z" transform="translate(-272.24 -396.92)"/><polygon class="cls-1" points="44.49 9.38 49.12 4.1 39.35 0 34.07 9.38 31.11 14.64 35.11 16.33 27.98 28.33 46.01 15.27 41.12 13.22 44.49 9.38"/></svg>