<svg id="レイヤー_1" data-name="レイヤー 1" xmlns="http://www.w3.org/2000/svg" width="20.03" height="20.03" viewBox="0 0 20.03 20.03"><defs><style>.cls-1{fill:#393939;}</style></defs><title>icon-14</title><path class="cls-1" d="M298.19,410.6a10,10,0,1,0,10,10A10,10,0,0,0,298.19,410.6Zm-1.89,14.82a1.25,1.25,0,1,1,1.25,1.25A1.25,1.25,0,0,1,296.3,425.42Zm5.32-6.26a3.42,3.42,0,0,1-.58,1,4.87,4.87,0,0,1-1.47,1.13l-0.73.38a0.8,0.8,0,0,0-.21.15,0.26,0.26,0,0,0-.06.11,0.78,0.78,0,0,0,0,.2v0.49a0.46,0.46,0,0,1-.46.46H297a0.46,0.46,0,0,1-.46-0.46v-0.49a2.78,2.78,0,0,1,.09-0.73,2.27,2.27,0,0,1,.29-0.65,2.58,2.58,0,0,1,.94-0.84l0.84-.44a3.09,3.09,0,0,0,.68-0.48,1.48,1.48,0,0,0,.28-0.37,1.53,1.53,0,0,0,.16-0.72,0.81,0.81,0,0,0-.1-0.37,1.54,1.54,0,0,0-.36-0.44,2.12,2.12,0,0,0-1.37-.49,2.73,2.73,0,0,0-1.39.34,1.18,1.18,0,0,0-.43.37,0.46,0.46,0,0,1-.59,0l-0.85-.68a0.46,0.46,0,0,1,0-.71,2.68,2.68,0,0,1,.88-0.76,4.78,4.78,0,0,1,2.4-.6,4.17,4.17,0,0,1,2.12.57,3.69,3.69,0,0,1,1.4,1.44,2.82,2.82,0,0,1,.33,1.31A3.71,3.71,0,0,1,301.62,419.16Z" transform="translate(-288.17 -410.6)"/></svg>