<svg id="レイヤー_1" data-name="レイヤー 1" xmlns="http://www.w3.org/2000/svg" width="73.16" height="56.15" viewBox="0 0 73.16 56.15"><defs><style>.cls-1{fill:#fff;}</style></defs><title>icon-10</title><path class="cls-1" d="M331.78,420.29A11.36,11.36,0,1,0,329,436.11,11.36,11.36,0,0,0,331.78,420.29Z" transform="translate(-260.68 -393.34)"/><path class="cls-1" d="M303.85,422.88c0.1-3.5,1.36-9.14,7.09-14.91,2.27-2.29,7.78-5.79,18.09-5.39,3.47-.19,4.43-3.46,4.24-5.2s-1.52-3.66-5-3.85c-4.62-.25-15.86-1.76-28.09,9.95C297.27,406.26,289,418,289,418a79.61,79.61,0,0,1-11.47,11.45L260.68,444.9c5.08,0.26,5.25,4.59,10.64,4.59,5.56,0,5.56-4.62,11.12-4.62s5.55,4.62,11.12,4.62,5.55-4.62,11.12-4.62c5.08,0,5.53,3.86,9.82,4.51-1.45-4-4.86-9.63-8.06-15C305,432,303.75,426.6,303.85,422.88Z" transform="translate(-260.68 -393.34)"/></svg>