<svg id="レイヤー_1" data-name="レイヤー 1" xmlns="http://www.w3.org/2000/svg" width="53.53" height="69.32" viewBox="0 0 53.53 69.32"><defs><style>.cls-1{fill:#fff;}</style></defs><title>icon-11</title><path class="cls-1" d="M280,431.06c-0.34-.28-0.69-0.55-1-0.85h0l0,0-8.19,17.56-0.24.63,0.31,0.49a1.17,1.17,0,0,0,1,.55H272l7.84-2.43,3.1,7.42a1.19,1.19,0,0,0,1.09.73,1.18,1.18,0,0,0,1.07-.68l6.34-13.58,1.88-4h0v0A27.69,27.69,0,0,1,280,431.06Z" transform="translate(-270.52 -385.81)"/><path class="cls-1" d="M317.46,434.18l-1.84-4h0l0,0a27.56,27.56,0,0,1-13.27,6.44c-0.35.06-.71,0.13-1.06,0.18h0l8.22,17.62a1.18,1.18,0,0,0,1.07.68,1.19,1.19,0,0,0,1.09-.73l3.1-7.42,7.69,2.38,0.18,0.05h0.16a1.18,1.18,0,0,0,1-.55l0.32-.6Z" transform="translate(-270.52 -385.81)"/><path class="cls-1" d="M320.79,409.32a23.51,23.51,0,1,0-23.51,23.51A23.51,23.51,0,0,0,320.79,409.32Zm-23.51,10.89a10.88,10.88,0,1,1,10.89-10.89A10.9,10.9,0,0,1,297.28,420.21Z" transform="translate(-270.52 -385.81)"/></svg>