<svg id="レイヤー_1" data-name="レイヤー 1" xmlns="http://www.w3.org/2000/svg" width="28.9" height="37.43" viewBox="0 0 28.9 37.43"><defs><style>.cls-1{fill:#231815;}</style></defs><title>icon-7</title><path class="cls-1" d="M288.38,426.56c-0.19-.15-0.37-0.3-0.55-0.46h0l-4.43,9.48-0.13.34,0.17,0.27a0.64,0.64,0,0,0,.54.29h0.1l4.23-1.32,1.67,4a0.64,0.64,0,0,0,1.17,0l3.42-7.33,1-2.16h0v0A14.9,14.9,0,0,1,288.38,426.56Z" transform="translate(-283.26 -402.13)"/><path class="cls-1" d="M308.6,428.24l-1-2.14h0v0a14.9,14.9,0,0,1-7.17,3.48l-0.57.1h0l4.44,9.51a0.63,0.63,0,0,0,.58.37,0.64,0.64,0,0,0,.59-0.39l1.67-4,4.15,1.29,0.1,0h0.09a0.64,0.64,0,0,0,.54-0.29l0.17-.32Z" transform="translate(-283.26 -402.13)"/><path class="cls-1" d="M310.4,414.82a12.7,12.7,0,1,0-12.7,12.7A12.7,12.7,0,0,0,310.4,414.82Zm-12.7,5.88a5.88,5.88,0,1,1,5.88-5.88A5.88,5.88,0,0,1,297.7,420.7Z" transform="translate(-283.26 -402.13)"/></svg>