<svg id="レイヤー_1" data-name="レイヤー 1" xmlns="http://www.w3.org/2000/svg" width="37.59" height="27.39" viewBox="0 0 37.59 27.39"><defs><style>.cls-1{fill:#231815;}</style></defs><title>icon-4</title><path class="cls-1" d="M315.39,412.75c-2.05.77-3.85,0.51-5.64,2.82-1.8-2.31-3.59-2.05-5.64-2.82-1.15,6.16,3.85,7.69,3.85,7.69l-1.82,3.12a4,4,0,0,1-5.79.5L296,419.89a13.45,13.45,0,0,0-7.93-3.26v-5.56a2.61,2.61,0,1,1,4.81,1.4,0.72,0.72,0,1,0,1.22.78,4.05,4.05,0,0,0-6.75-4.48,4.05,4.05,0,0,0-6.75,4.48,0.72,0.72,0,0,0,1.22-.78h0a2.61,2.61,0,1,1,4.81-1.4v5.52h-2a6.94,6.94,0,0,0-6.65,7v5.22c0,3.09,2,5.58,5.94,5.58H302.4a6.73,6.73,0,0,0,6.24-4.21l2.9-9.75S316.54,418.9,315.39,412.75Z" transform="translate(-277.97 -407.01)"/></svg>