<svg xmlns="http://www.w3.org/2000/svg" viewBox="0 0 51.3 29.5">
  <title>icon-bus</title>
  <g>
    <path d="M44.1,0H5.9A2.8,2.8,0,0,0,3.2,2L.4,10.5A7.5,7.5,0,0,0,0,13.1V25.2H6.4V25a6.1,6.1,0,0,1,12.2,0v.2H33.7V25a6.1,6.1,0,1,1,12.2,0v.2h5.4V7.2A7.2,7.2,0,0,0,44.1,0ZM9.9,16.7a.9.9,0,0,1-.8.8h-4a.8.8,0,0,1-.7-.8V13a3.4,3.4,0,0,1,.2-1.4L7,4.3a.7.7,0,0,1,.7-.5H9.1a.8.8,0,0,1,.8.7V16.7Zm12.9-5.6a.4.4,0,0,1-.4.4H14c-.2,0-.3-.2-.3-.4V4.2c0-.2.1-.4.3-.4h8.4a.4.4,0,0,1,.4.4Zm12.5,0a.4.4,0,0,1-.4.4H26.2a.4.4,0,0,1-.4-.4V4.2a.4.4,0,0,1,.4-.4h8.7a.4.4,0,0,1,.4.4v6.9ZM47,10.7a.9.9,0,0,1-.8.8H39.5a.8.8,0,0,1-.7-.8V4.5a.7.7,0,0,1,.7-.7h4A3.5,3.5,0,0,1,47,7.3Z" fill="#fff"/>
    <path d="M12.5,20.5A4.5,4.5,0,1,0,17,25,4.5,4.5,0,0,0,12.5,20.5Zm0,6.4A1.8,1.8,0,0,1,10.6,25a1.9,1.9,0,0,1,1.9-1.9A2,2,0,0,1,14.4,25,1.9,1.9,0,0,1,12.5,26.9Z" fill="#fff"/>
    <path d="M39.8,20.5A4.5,4.5,0,1,0,44.3,25,4.5,4.5,0,0,0,39.8,20.5Zm0,6.4A1.9,1.9,0,0,1,37.9,25a2,2,0,0,1,1.9-1.9A1.9,1.9,0,0,1,41.7,25,1.8,1.8,0,0,1,39.8,26.9Z" fill="#fff"/>
  </g>
</svg>
