<svg xmlns="http://www.w3.org/2000/svg" viewBox="0 0 48.4 36.4">
  <title>icon-mail-config</title>
  <g>
    <path d="M42.4,17.5V8.8l-5.5,4.7,2.6,2.7h.9A2.1,2.1,0,0,1,42.4,17.5Z" fill="#fff"/>
    <polygon points="0 8.8 0 19.2 5.5 13.5 0 8.8" fill="#fff"/>
    <g>
      <path d="M30.4,28.8h2a.5.5,0,0,1,.5.3l.4,1a.7.7,0,0,1-.1.5l-1.4,1.5a.9.9,0,0,0,0,.7l1.7,1.6a.5.5,0,0,0,.7,0l1.5-1.3a.4.4,0,0,1,.5-.1l1,.4.3.4v2a.5.5,0,0,0,.4.5h2.4a.5.5,0,0,0,.5-.5v-2c0-.2.1-.3.3-.4l1-.4c.1-.1.3,0,.5.1l1.4,1.3a.5.5,0,0,0,.7,0l1.7-1.6a.5.5,0,0,0,0-.7l-1.4-1.5a.7.7,0,0,1-.1-.5l.5-1c0-.2.2-.3.4-.3h2a.4.4,0,0,0,.4-.4V26a.5.5,0,0,0-.4-.5H46c-.2,0-.4-.1-.4-.3l-.5-1a1.1,1.1,0,0,1,.1-.5l1.4-1.5a.4.4,0,0,0,0-.6l-1.7-1.7a.5.5,0,0,0-.7,0l-1.4,1.3c-.2.2-.4.2-.5.1l-1-.4c-.2,0-.3-.2-.3-.4v-2a.5.5,0,0,0-.5-.5H38a.5.5,0,0,0-.4.5v2c-.1.2-.2.4-.3.4l-1,.4c-.2.1-.4.1-.5-.1l-1.5-1.3a.5.5,0,0,0-.7,0l-1.7,1.7a.6.6,0,0,0,0,.6l1.4,1.5a1.1,1.1,0,0,1,.1.5l-.4,1a.5.5,0,0,1-.5.3h-2a.5.5,0,0,0-.4.5v2.4A.4.4,0,0,0,30.4,28.8Zm8.8-4.6a2.9,2.9,0,0,1,3,3,3,3,0,1,1-6,0A2.9,2.9,0,0,1,39.2,24.2Z" fill="#fff"/>
      <path d="M30.9,30.6h-.5a2.4,2.4,0,0,1-2.2-2.2V26a2.2,2.2,0,0,1,2.2-2.2h.5l-.4-.4a2.3,2.3,0,0,1,.1-3.1l1.7-1.6a2.2,2.2,0,0,1,3.1-.1l.4.4v-.6c0-.2.1-.4.1-.7l-1.7-1.7-9.3,8a5.4,5.4,0,0,1-3.7,1.3,5,5,0,0,1-3.6-1.3l-9.4-8L0,24.4v5.2a2.3,2.3,0,0,0,2.3,2.3H30.1a1.8,1.8,0,0,1,.4-.9Z" fill="#fff"/>
      <path d="M22.4,21.8l20-17.2V2.3A2.3,2.3,0,0,0,40.1,0H2.3A2.3,2.3,0,0,0,0,2.3V4.6L20,21.8A1.8,1.8,0,0,0,22.4,21.8Z" fill="#fff"/>
    </g>
  </g>
</svg>
