<svg id="レイヤー_1" data-name="レイヤー 1" xmlns="http://www.w3.org/2000/svg" width="40.77" height="50.11" viewBox="0 0 40.77 50.11"><defs><style>.cls-1{fill:#fff;}</style></defs><title>icon_memo_2</title><path class="cls-1" d="M309.91,395.92h-24a8.41,8.41,0,0,0-8.41,8.41v33.3a8.42,8.42,0,0,0,8.41,8.41h17.94l0.91-.91,12.6-12.6,0.91-.91V404.32A8.41,8.41,0,0,0,309.91,395.92Zm5.29,34.39H307a4.41,4.41,0,0,0-4.41,4.41v8.19H285.95a5.29,5.29,0,0,1-5.29-5.29v-33.3a5.29,5.29,0,0,1,5.29-5.29h24a5.29,5.29,0,0,1,5.29,5.29v26h0Z" transform="translate(-277.54 -395.92)"/><rect class="cls-1" x="8.41" y="12.42" width="3" height="2.87"/><rect class="cls-1" x="8.41" y="19.4" width="3" height="2.87"/><rect class="cls-1" x="8.41" y="26.37" width="3" height="2.87"/><rect class="cls-1" x="8.41" y="33.35" width="3" height="2.87"/><rect class="cls-1" x="14.66" y="12.42" width="17.7" height="2.87"/><rect class="cls-1" x="14.66" y="19.4" width="17.7" height="2.87"/><rect class="cls-1" x="14.66" y="26.37" width="17.7" height="2.87"/><rect class="cls-1" x="14.66" y="33.35" width="7.28" height="2.87"/></svg>