<svg id="レイヤー_1" data-name="レイヤー 1" xmlns="http://www.w3.org/2000/svg" width="60.41" height="57.64" viewBox="0 0 60.41 57.64"><defs><style>.cls-1{fill:#fff;}</style></defs><title>icon-12</title><path class="cls-1" d="M326.42,410.56l-2.35-2.35a3.64,3.64,0,0,0-5.15,0l-2.2,2.2,7.5,7.5,2.2-2.19A3.64,3.64,0,0,0,326.42,410.56Z" transform="translate(-267.08 -391.38)"/><polygon class="cls-1" points="29.09 39.59 29.09 47.09 36.59 47.09 55.1 28.57 47.61 21.08 29.09 39.59"/><path class="cls-1" d="M292.64,442V429.51l18.75-18.75V391.38H267.08V449h44.31V435.74L305.13,442H292.64Zm-16.35-36.5h21.18V409H276.29V405.5Zm0,12.94h21.18V422H276.29v-3.53Zm12.94,16.47H276.29v-3.53h12.94v3.53Z" transform="translate(-267.08 -391.38)"/></svg>