<svg id="レイヤー_1" data-name="レイヤー 1" xmlns="http://www.w3.org/2000/svg" width="64.86" height="40.01" viewBox="0 0 64.86 40.01"><defs><style>.cls-1{fill:#fff;}</style></defs><title>icon_men</title><path class="cls-1" d="M283.71,428.7c0-.1,0-0.19,0-0.29v-0.87a3.65,3.65,0,0,1,.2-1.2,23,23,0,0,0,3.18-6.28,19.81,19.81,0,0,1-2.13-8.19,18.31,18.31,0,0,1,.12-2,7.64,7.64,0,0,0-5.59-2.39c-4.48,0-8.12,3.66-8.12,9.34,0,4.55,3.7,9.49,3.7,9.49a3.75,3.75,0,0,1,.2,1.2v0.87a2.76,2.76,0,0,1-1.61,2.51l-5.88,2.4a4.62,4.62,0,0,0-2.61,3.36L265,438a2.42,2.42,0,0,0,2.41,2.61H277l0.39-5.06,0-.14a8.28,8.28,0,0,1,4.69-6Z" transform="translate(-265.02 -400.56)"/><path class="cls-1" d="M329.77,436.67a4.61,4.61,0,0,0-2.61-3.36l-5.88-2.4a2.76,2.76,0,0,1-1.61-2.51v-0.87a3.65,3.65,0,0,1,.2-1.2s3.7-4.94,3.7-9.49c0-5.69-3.64-9.34-8.13-9.34a7.64,7.64,0,0,0-5.59,2.39,17.7,17.7,0,0,1,.12,2,19.84,19.84,0,0,1-2.13,8.19,23,23,0,0,0,3.18,6.28,3.75,3.75,0,0,1,.2,1.2v0.87c0,0.1,0,.19,0,0.29l1.46,0.59a8.33,8.33,0,0,1,4.79,6.08l0,0.14,0.39,5.06h9.61a2.42,2.42,0,0,0,2.41-2.61Z" transform="translate(-265.02 -400.56)"/><path class="cls-1" d="M311.62,431.79l-7.11-2.91a3.34,3.34,0,0,1-1.95-3v-1a4.4,4.4,0,0,1,.24-1.46s4.47-6,4.47-11.48c0-6.88-4.4-11.3-9.83-11.3s-9.83,4.42-9.83,11.3c0,5.51,4.48,11.48,4.48,11.48a4.51,4.51,0,0,1,.24,1.46v1a3.35,3.35,0,0,1-1.95,3l-7.11,2.91a5.57,5.57,0,0,0-3.16,4.07l-0.37,4.71h35.39l-0.36-4.71A5.58,5.58,0,0,0,311.62,431.79Z" transform="translate(-265.02 -400.56)"/></svg>