<svg id="レイヤー_1" data-name="レイヤー 1" xmlns="http://www.w3.org/2000/svg" width="40" height="40" viewBox="0 0 40 40"><defs><style>.cls-1{fill:#c6cbdb;}.cls-2{fill:#979696;}</style></defs><title>icon-15</title><rect class="cls-1" width="40" height="40" rx="6.4" ry="6.4"/><path class="cls-2" d="M305.94,412.42a12,12,0,0,0-5.87-3.22l0.16-3-5.86,3.09-1.56.83-0.29.15,0.46,0.25,2.19,1.18,4.64,2.5,0.13-2.46a9.47,9.47,0,0,1,6.21,12.9l2.31,1A12,12,0,0,0,305.94,412.42Z" transform="translate(-277.46 -400.9)"/><path class="cls-2" d="M299.77,430.07l-4.65-2.5L295,430a9.47,9.47,0,0,1-6.21-12.9l-2.31-1a12,12,0,0,0,8.39,16.46l-0.16,3,5.85-3.09,1.57-.83,0.29-.15-0.46-.25Z" transform="translate(-277.46 -400.9)"/></svg>