<svg id="レイヤー_1" data-name="レイヤー 1" xmlns="http://www.w3.org/2000/svg" width="23.31" height="18.3" viewBox="0 0 23.31 18.3"><defs><style>.cls-1{fill:#4c4b4b;}</style></defs><title>icon-3</title><path class="cls-1" d="M308.89,413.71a3.23,3.23,0,0,0-.67-1.41,2.66,2.66,0,0,0-.22-0.24,3.22,3.22,0,0,0-2.29-.95H288.87a3.23,3.23,0,0,0-2.29.95,2.83,2.83,0,0,0-.22.24,3.19,3.19,0,0,0-.67,1.41,3.11,3.11,0,0,0-.06.63v11.83a3.21,3.21,0,0,0,.27,1.28,3.15,3.15,0,0,0,.68,1l0.22,0.21a3.23,3.23,0,0,0,2.06.74h16.84a3.21,3.21,0,0,0,2.06-.75l0.22-.2a3.21,3.21,0,0,0,.68-1h0a3.2,3.2,0,0,0,.27-1.28V414.34A3.29,3.29,0,0,0,308.89,413.71Zm-21.13-.49a1.56,1.56,0,0,1,1.12-.46h16.84a1.56,1.56,0,0,1,1.12.46l0.14,0.17-8.83,7.69a1.3,1.3,0,0,1-1.7,0l-8.83-7.7A1.14,1.14,0,0,1,287.76,413.22Zm-0.46,12.95V415.09l6.39,5.57-6.39,5.57A0.52,0.52,0,0,1,287.29,426.17Zm18.42,1.58H288.87a1.55,1.55,0,0,1-.78-0.21l6.74-5.87,0.63,0.55a2.8,2.8,0,0,0,3.68,0l0.63-.55,6.73,5.87A1.55,1.55,0,0,1,305.72,427.75Zm1.58-1.58a0.46,0.46,0,0,1,0,.07l-6.39-5.57,6.39-5.57v11.07Z" transform="translate(-285.64 -411.1)"/></svg>