<svg id="レイヤー_1" data-name="レイヤー 1" xmlns="http://www.w3.org/2000/svg" width="14.02" height="16.75" viewBox="0 0 14.02 16.75"><defs><style>.cls-1{fill:#4c4b4b;}</style></defs><title>icon-2</title><path class="cls-1" d="M302.84,419.27h-0.31V417a4.66,4.66,0,1,0-9.31,0v2.3H292.9a2,2,0,0,0-2,2V427a2,2,0,0,0,2,2h9.93a2,2,0,0,0,2-2v-5.71A2,2,0,0,0,302.84,419.27Zm-7.61-2.3a2.64,2.64,0,1,1,5.28,0v2.3h-5.28V417Zm3.23,7.83,0.32,2.08H297l0.32-2.08A1.45,1.45,0,1,1,298.46,424.8Z" transform="translate(-290.86 -412.31)"/></svg>