<svg id="レイヤー_1" data-name="レイヤー 1" xmlns="http://www.w3.org/2000/svg" width="68.55" height="41.78" viewBox="0 0 68.55 41.78"><defs><style>.cls-1{fill:#4c4b4b;}.cls-2{fill:#fff;}.cls-3{fill:none;}</style></defs><title>icon-17</title><path class="cls-1" d="M331.08,498.27a5.82,5.82,0,0,0-3.3-4.25l-7.43-3a3.49,3.49,0,0,1-2-3.17v-1.09a4.65,4.65,0,0,1,.26-1.52s4.67-6.24,4.67-12c0-7.19-4.6-11.81-10.27-11.81s-10.27,4.62-10.27,11.81c0,5.75,4.67,12,4.67,12a4.67,4.67,0,0,1,.26,1.52v1.09a3.49,3.49,0,0,1-2,3.17l-7.43,3a5.82,5.82,0,0,0-3.3,4.25l-0.38,4.92h37Z" transform="translate(-262.91 -461.4)"/><path class="cls-2" d="M331.08,498.27a5.82,5.82,0,0,0-3.3-4.25l-7.43-3a3.49,3.49,0,0,1-2-3.17v-1.09a4.65,4.65,0,0,1,.26-1.52s4.67-6.24,4.67-12c0-7.19-4.6-11.81-10.27-11.81s-10.27,4.62-10.27,11.81c0,5.75,4.67,12,4.67,12a4.67,4.67,0,0,1,.26,1.52v1.09a3.49,3.49,0,0,1-2,3.17l-7.43,3a5.82,5.82,0,0,0-3.3,4.25l-0.38,4.92h37Z" transform="translate(-262.91 -461.4)"/><path class="cls-3" d="M304.66,475.85c0,0.11,0,.22.07,0.32v-0.12A0.36,0.36,0,0,0,304.66,475.85Z" transform="translate(-262.91 -461.4)"/><path class="cls-3" d="M294,475.67a0.41,0.41,0,0,0-.43.39v7.42a0.41,0.41,0,0,0,.43.39H304.3a0.45,0.45,0,0,0,.25-0.08,25.62,25.62,0,0,1-3.21-8.12H294Z" transform="translate(-262.91 -461.4)"/><ellipse class="cls-3" cx="14.8" cy="36.95" rx="2.24" ry="2.02"/><path class="cls-3" d="M289.49,475.67h-9.94a0.41,0.41,0,0,0-.43.39v7.42a0.41,0.41,0,0,0,.43.39h9.94a0.41,0.41,0,0,0,.43-0.39v-7.42A0.41,0.41,0,0,0,289.49,475.67Z" transform="translate(-262.91 -461.4)"/><path class="cls-3" d="M273.75,475.67H272a0.86,0.86,0,0,0-.82.54l-2.81,7.8a4.37,4.37,0,0,0-.27,1.5v4a0.82,0.82,0,0,0,.86.78h4.8a0.82,0.82,0,0,0,.86-0.78h0V476.45A0.82,0.82,0,0,0,273.75,475.67Z" transform="translate(-262.91 -461.4)"/><path class="cls-2" d="M297.51,492.56l7.49-3.06a1.87,1.87,0,0,0,1-1.69v-1.09a3.06,3.06,0,0,0-.1-0.79c-0.26-.36-0.78-1.12-1.38-2.14a0.45,0.45,0,0,1-.25.08H294a0.41,0.41,0,0,1-.43-0.39v-7.42a0.41,0.41,0,0,1,.43-0.39h7.35a14,14,0,0,1-.24-2.46c0-.55,0-1.09.08-1.62H269.87a3.34,3.34,0,0,0-3.18,2.09l-3.3,9.14a7.91,7.91,0,0,0-.47,2.73v13h7.55c0-.07,0-0.14,0-0.21,0-3.61,3.26-6.55,7.26-6.55s7.26,2.94,7.26,6.55c0,0.07,0,.14,0,0.21h8.3l0-.59A7.43,7.43,0,0,1,297.51,492.56Zm-22.9-3.06h0a0.82,0.82,0,0,1-.86.78h-4.8a0.82,0.82,0,0,1-.86-0.78v-4a4.37,4.37,0,0,1,.27-1.5l2.81-7.8a0.86,0.86,0,0,1,.82-0.54h1.77a0.82,0.82,0,0,1,.86.78V489.5Zm15.31-6a0.41,0.41,0,0,1-.43.39h-9.94a0.41,0.41,0,0,1-.43-0.39v-7.42a0.41,0.41,0,0,1,.43-0.39h9.94a0.41,0.41,0,0,1,.43.39v7.42Z" transform="translate(-262.91 -461.4)"/><path class="cls-2" d="M319.93,486.72v1.09a1.89,1.89,0,0,0,1.1,1.71l2.77,1.13V479.28c0-.16,0-0.31,0-0.46a31.19,31.19,0,0,1-3.73,7.11A3.07,3.07,0,0,0,319.93,486.72Z" transform="translate(-262.91 -461.4)"/><path class="cls-2" d="M277.71,493.53a4.86,4.86,0,1,0,5.36,4.83A5.11,5.11,0,0,0,277.71,493.53Zm0,6.85a2,2,0,1,1,2.24-2A2.14,2.14,0,0,1,277.71,500.38Z" transform="translate(-262.91 -461.4)"/></svg>