<svg id="レイヤー_1" data-name="レイヤー 1" xmlns="http://www.w3.org/2000/svg" width="45.54" height="53.67" viewBox="0 0 45.54 53.67"><defs><style>.cls-1{fill:#fff;}</style></defs><title>icon_bus_02</title><path class="cls-1" d="M279.11,446.73a1,1,0,0,0,1,1h6.08a1,1,0,0,0,1-1v-3h-8.13v3Z" transform="translate(-275.04 -394.09)"/><path class="cls-1" d="M308.38,446.73a1,1,0,0,0,1,1h6.08a1,1,0,0,0,1-1v-3h-8.13v3Z" transform="translate(-275.04 -394.09)"/><path class="cls-1" d="M297.81,394.09c-10.85,0-22.77,1.06-22.77,8.23V440.8a1.54,1.54,0,0,0,1.54,1.54H319a1.54,1.54,0,0,0,1.54-1.54V402.31C320.58,395.14,308.66,394.09,297.81,394.09Zm-9.76,5.06h19.52v3.25H288.05v-3.25Zm-7.72,10.6a1,1,0,0,1,1-1h32.92a1,1,0,0,1,1,1v10.39a1,1,0,0,1-1,1H281.35a1,1,0,0,1-1-1V409.75Zm6.55,26.63a0.51,0.51,0,0,1-.51.51h-2.18a3.07,3.07,0,0,1-1.52-.4l-2.13-1.21a0.51,0.51,0,0,1-.26-0.45v-1.89a0.51,0.51,0,0,1,.51-0.51h5.57a0.51,0.51,0,0,1,.51.51v3.44h0Zm15.91,2.53h-10v-5.78h10v5.78Zm12.55-4.07a0.51,0.51,0,0,1-.26.45L313,436.48a3.07,3.07,0,0,1-1.52.4h-2.18a0.51,0.51,0,0,1-.51-0.51v-3.44a0.51,0.51,0,0,1,.51-0.51h5.57a0.51,0.51,0,0,1,.51.51v1.89h0Z" transform="translate(-275.04 -394.09)"/></svg>