<svg id="レイヤー_1" data-name="レイヤー 1" xmlns="http://www.w3.org/2000/svg" width="38.67" height="29.68" viewBox="0 0 38.67 29.68"><defs><style>.cls-1{fill:#231815;}</style></defs><title>icon-6</title><path class="cls-1" d="M316,420.85a6,6,0,1,0-1.48,8.36A6,6,0,0,0,316,420.85Z" transform="translate(-278.37 -406.61)"/><path class="cls-1" d="M301.19,422.22a11.65,11.65,0,0,1,3.75-7.88c1.2-1.21,4.12-3.06,9.56-2.85a2.43,2.43,0,0,0,2.24-2.75c-0.1-.92-0.8-1.93-2.64-2-2.44-.13-8.38-0.93-14.85,5.26a94.69,94.69,0,0,0-5.9,7.66,42,42,0,0,1-6.06,6.05l-8.91,8.18c2.68,0.14,2.78,2.43,5.63,2.43s2.94-2.44,5.88-2.44,2.94,2.44,5.88,2.44,2.94-2.44,5.88-2.44c2.69,0,2.92,2,5.19,2.39a55.44,55.44,0,0,0-4.26-7.92A14,14,0,0,1,301.19,422.22Z" transform="translate(-278.37 -406.61)"/></svg>