<svg id="レイヤー_1" data-name="レイヤー 1" xmlns="http://www.w3.org/2000/svg" width="34.6" height="35.59" viewBox="0 0 34.6 35.59"><defs><style>.cls-1{fill:#231815;}</style></defs><title>icon-5</title><path class="cls-1" d="M290.28,410.5a2,2,0,0,0,2-2v-3.17a2,2,0,0,0-4,0v3.17A2,2,0,0,0,290.28,410.5Z" transform="translate(-280.41 -403.3)"/><path class="cls-1" d="M305.13,410.5a2,2,0,0,0,2-2v-3.17a2,2,0,0,0-4,0v3.17A2,2,0,0,0,305.13,410.5Z" transform="translate(-280.41 -403.3)"/><path class="cls-1" d="M310.16,406.17h-1.25v2.31a3.78,3.78,0,0,1-7.57,0v-2.31h-7.28v2.31a3.78,3.78,0,1,1-7.57,0v-2.31h-1.25a4.85,4.85,0,0,0-4.85,4.85v23a4.85,4.85,0,0,0,4.85,4.85h24.91A4.85,4.85,0,0,0,315,434V411A4.85,4.85,0,0,0,310.16,406.17ZM312.65,434a2.49,2.49,0,0,1-2.49,2.49H285.25a2.49,2.49,0,0,1-2.49-2.49v-20h29.89v20Z" transform="translate(-280.41 -403.3)"/><rect class="cls-1" x="12.28" y="26.24" width="3.94" height="3.94"/><rect class="cls-1" x="12.28" y="20.13" width="3.94" height="3.94"/><rect class="cls-1" x="6.16" y="26.24" width="3.94" height="3.94"/><rect class="cls-1" x="6.16" y="20.13" width="3.94" height="3.94"/><rect class="cls-1" x="24.5" y="14.02" width="3.94" height="3.94"/><rect class="cls-1" x="18.39" y="14.02" width="3.94" height="3.94"/><rect class="cls-1" x="18.39" y="20.13" width="3.94" height="3.94"/><rect class="cls-1" x="24.5" y="26.24" width="3.94" height="3.94"/><rect class="cls-1" x="24.5" y="20.13" width="3.94" height="3.94"/><rect class="cls-1" x="18.39" y="26.24" width="3.94" height="3.94"/><rect class="cls-1" x="12.28" y="14.02" width="3.94" height="3.94"/><rect class="cls-1" x="6.16" y="14.02" width="3.94" height="3.94"/></svg>