<svg id="レイヤー_1" data-name="レイヤー 1" xmlns="http://www.w3.org/2000/svg" width="58.19" height="58.23" viewBox="0 0 58.19 58.23"><defs><style>.cls-1{fill:#fff;}</style></defs><title>icon_ic_card</title><path class="cls-1" d="M324.95,421.68L297.38,394a7.07,7.07,0,0,0-10,0L270.9,410.42a7.07,7.07,0,0,0,0,10l27.57,27.67a7.07,7.07,0,0,0,10,0l16.48-16.42A7.07,7.07,0,0,0,324.95,421.68ZM306.1,445.75a3.75,3.75,0,0,1-5.29,0l-27.57-27.67a3.75,3.75,0,0,1,0-5.29l10.6-10.56,32.86,33Zm14.13-14.08-32.86-33,2.35-2.34a3.75,3.75,0,0,1,5.29,0L322.59,424a3.75,3.75,0,0,1,0,5.29Z" transform="translate(-268.82 -391.94)"/><rect class="cls-1" x="280.98" y="413.69" width="6.65" height="6.65" transform="translate(-480.26 -69.61) rotate(-44.9)"/><rect class="cls-1" x="299.49" y="422.24" width="2.49" height="16.62" transform="translate(-485.03 -54.06) rotate(-44.9)"/><rect class="cls-1" x="294.79" y="426.25" width="2.49" height="13.3" transform="translate(-488.06 -56.7) rotate(-44.9)"/></svg>